<svg width="124" height="48" viewBox="0 0 124 48" fill="none" xmlns="http://www.w3.org/2000/svg">
<g clip-path="url(#clip0_122_737)">
<path d="M13.0156 38.3281C10.7656 38.3281 8.86979 37.8385 7.32812 36.8594C5.79688 35.8698 4.63542 34.5052 3.84375 32.7656C3.0625 31.026 2.67188 29.0312 2.67188 26.7812V26.4844C2.67188 24.2135 3.07812 22.2135 3.89062 20.4844C4.71354 18.7448 5.875 17.3854 7.375 16.4062C8.875 15.4167 10.6354 14.9219 12.6562 14.9219C14.2188 14.9219 15.5625 15.1406 16.6875 15.5781C17.8229 16.0156 18.8281 16.6146 19.7031 17.375V21.7969H18.1094L17.9531 18.1719C17.4948 17.8281 17.0104 17.5365 16.5 17.2969C16 17.0573 15.4375 16.875 14.8125 16.75C14.1979 16.6146 13.4792 16.5469 12.6562 16.5469C11 16.5469 9.5625 16.9688 8.34375 17.8125C7.13542 18.6458 6.19792 19.8073 5.53125 21.2969C4.875 22.776 4.54688 24.4948 4.54688 26.4531V26.7812C4.54688 28.8021 4.88021 30.5573 5.54688 32.0469C6.22396 33.5365 7.19271 34.6875 8.45312 35.5C9.72396 36.3125 11.25 36.7188 13.0312 36.7188C13.9896 36.7188 14.9115 36.599 15.7969 36.3594C16.6927 36.1198 17.4479 35.8021 18.0625 35.4062L18.2188 31.9688H19.7969V36.5C18.8698 37.1042 17.8229 37.5625 16.6562 37.875C15.5 38.1771 14.2865 38.3281 13.0156 38.3281ZM62.2344 38.3281C60.9323 38.3281 59.6302 38.1302 58.3281 37.7344C57.0365 37.3385 55.7865 36.724 54.5781 35.8906V31.4844H56.1406L56.375 35.0312C57.2917 35.6042 58.2448 36.0312 59.2344 36.3125C60.224 36.5938 61.224 36.7344 62.2344 36.7344C63.4323 36.7344 64.474 36.5521 65.3594 36.1875C66.2552 35.8125 66.9479 35.2969 67.4375 34.6406C67.9375 33.974 68.1875 33.2083 68.1875 32.3438C68.1875 31.5104 67.9844 30.7812 67.5781 30.1562C67.1823 29.5208 66.5312 28.9635 65.625 28.4844C64.7292 28.0052 63.5104 27.5677 61.9688 27.1719C60.3125 26.7448 58.9583 26.2448 57.9062 25.6719C56.8646 25.099 56.0938 24.4115 55.5938 23.6094C55.1042 22.7969 54.8594 21.8333 54.8594 20.7188C54.8594 19.5833 55.1615 18.5833 55.7656 17.7188C56.3698 16.8438 57.2135 16.1615 58.2969 15.6719C59.3906 15.1719 60.6615 14.9219 62.1094 14.9219C63.6406 14.9219 65.0052 15.151 66.2031 15.6094C67.4115 16.0677 68.4323 16.6562 69.2656 17.375V21.4375H67.7188L67.4844 18.2188C66.8281 17.6875 66.0521 17.2708 65.1562 16.9688C64.2604 16.6667 63.2448 16.5156 62.1094 16.5156C60.9948 16.5156 60.0365 16.7031 59.2344 17.0781C58.4323 17.4427 57.8125 17.9375 57.375 18.5625C56.9479 19.1875 56.7344 19.8958 56.7344 20.6875C56.7344 21.4479 56.9062 22.1198 57.25 22.7031C57.5938 23.276 58.1875 23.7865 59.0312 24.2344C59.875 24.6719 61.0573 25.0938 62.5781 25.5C65.0469 26.1354 66.9115 26.9948 68.1719 28.0781C69.4323 29.151 70.0625 30.5625 70.0625 32.3125C70.0625 33.5208 69.7292 34.5781 69.0625 35.4844C68.4062 36.3802 67.4896 37.0781 66.3125 37.5781C65.1354 38.0781 63.776 38.3281 62.2344 38.3281ZM72.8438 38V36.6406L75.3906 36.4375V16.8281L72.8438 16.625V15.25H75.3906H77.9219L86.3281 34.75H86.4219L94.7188 15.25H99.9219V16.625L97.375 16.8281V36.4375L99.9219 36.6406V38H92.9531V36.6406L95.5625 36.4375V26.7344V17.9844L95.4844 17.9688L87.0469 37.625H85.7344L77.2031 18.0312L77.1094 18.0625L77.1719 26.5156V36.4375L79.8125 36.6406V38H72.8438ZM112.312 38.3281C110.875 38.3281 109.573 38.0521 108.406 37.5C107.24 36.9479 106.24 36.1615 105.406 35.1406C104.573 34.1198 103.932 32.9062 103.484 31.5C103.036 30.0833 102.812 28.5104 102.812 26.7812V26.4844C102.812 24.7552 103.031 23.1875 103.469 21.7812C103.917 20.3646 104.557 19.1458 105.391 18.125C106.224 17.0938 107.224 16.3021 108.391 15.75C109.557 15.1979 110.859 14.9219 112.297 14.9219C113.766 14.9219 115.083 15.1979 116.25 15.75C117.427 16.3021 118.427 17.0938 119.25 18.125C120.083 19.1458 120.714 20.3646 121.141 21.7812C121.578 23.1875 121.797 24.7552 121.797 26.4844V26.7812C121.797 28.5104 121.578 30.0833 121.141 31.5C120.714 32.9062 120.089 34.1198 119.266 35.1406C118.443 36.1615 117.443 36.9479 116.266 37.5C115.099 38.0521 113.781 38.3281 112.312 38.3281ZM112.312 36.6875C113.958 36.6875 115.344 36.276 116.469 35.4531C117.604 34.6302 118.464 33.474 119.047 31.9844C119.63 30.4948 119.922 28.7604 119.922 26.7812V26.4531C119.922 24.474 119.625 22.7448 119.031 21.2656C118.448 19.7865 117.589 18.6354 116.453 17.8125C115.318 16.9792 113.932 16.5625 112.297 16.5625C110.724 16.5625 109.37 16.9792 108.234 17.8125C107.099 18.6354 106.224 19.7917 105.609 21.2812C105.005 22.7604 104.703 24.4844 104.703 26.4531V26.7812C104.703 28.7604 105.005 30.4948 105.609 31.9844C106.224 33.474 107.099 34.6302 108.234 35.4531C109.38 36.276 110.74 36.6875 112.312 36.6875Z" fill="#0C0D0D"/>
<path fill-rule="evenodd" clip-rule="evenodd" d="M53.2791 8.24861C53.5764 7.73412 53.7465 7.13693 53.7465 6.5C53.7465 4.567 52.1795 3 50.2465 3C48.3244 3 46.7642 4.54932 46.7466 6.46722C43.4475 7.33797 39.4078 9.79822 35.3846 13.4389C30.2101 14.8203 26.3065 19.3141 25.8018 24.7923C20.5033 33.078 18.8079 40.9028 22.161 43.6707C25.0882 46.087 31.0705 43.9953 37.2876 38.919C37.7665 38.9725 38.2533 39 38.7465 39C45.9262 39 51.7465 33.1797 51.7465 26C51.7465 24.5474 51.5082 23.1504 51.0687 21.846C53.9626 16.1105 54.8771 11.0129 53.2791 8.24861ZM46.8816 7.46649C45.7477 7.77826 44.4911 8.29839 43.146 9.02505C41.2963 10.0243 39.32 11.3918 37.3182 13.0776C37.7872 13.0263 38.2638 13 38.7465 13C43.9958 13 48.5184 16.1112 50.5709 20.5903C51.2496 19.1659 51.7961 17.7931 52.2025 16.5008C52.8737 14.3662 53.1465 12.5017 53.0353 11.0133C52.9789 10.2572 52.8263 9.62159 52.5914 9.09839C51.9708 9.65878 51.1485 10 50.2465 10C48.6488 10 47.3011 8.92943 46.8816 7.46649ZM30.6032 19.9117C29.7169 20.9853 28.8884 22.0669 28.1204 23.1458C27.8765 24.056 27.7465 25.0128 27.7465 26C27.7465 31.8338 32.2878 36.6069 38.0281 36.9769C40.0035 35.2298 41.9897 33.1813 43.8898 30.8793C46.0646 28.2447 47.8921 25.5625 49.3291 22.9884C48.0195 18.3773 43.7774 15 38.7465 15C37.1013 15 35.5405 15.3612 34.139 16.0086C32.9431 17.2089 31.7573 18.5136 30.6032 19.9117ZM44.661 31.5159C46.5953 29.1727 48.2657 26.7847 49.6391 24.4568C49.7099 24.961 49.7465 25.4762 49.7465 26C49.7465 31.8142 45.2356 36.5748 39.5227 36.973C41.2639 35.3616 42.9972 33.5315 44.661 31.5159ZM31.347 41.766C32.8211 40.9697 34.3757 39.9394 35.9595 38.7005C30.3564 37.4766 26.1042 32.6392 25.7679 26.7532C24.1914 29.4122 23.0169 31.9801 22.2905 34.2902C21.6193 36.4249 21.3466 38.2893 21.4577 39.7778C21.5685 41.2625 22.0501 42.2825 22.7976 42.8995C23.5451 43.5165 24.6378 43.7962 26.1167 43.6236C27.5992 43.4507 29.3782 42.8296 31.347 41.766Z" fill="url(#paint0_linear_122_737)"/>
</g>
<defs>
<linearGradient id="paint0_linear_122_737" x1="50.5007" y1="16" x2="18.0007" y2="37.5" gradientUnits="userSpaceOnUse">
<stop stop-color="#92278F"/>
<stop offset="1" stop-color="#1872E7"/>
</linearGradient>
<clipPath id="clip0_122_737">
<rect width="124" height="48" fill="white"/>
</clipPath>
</defs>
</svg>
