<svg width="40" height="40" viewBox="0 0 40 40" fill="none" xmlns="http://www.w3.org/2000/svg">
<path fill-rule="evenodd" clip-rule="evenodd" d="M20 40C31.0457 40 40 31.0457 40 20C40 8.9543 31.0457 0 20 0C8.9543 0 0 8.9543 0 20C0 31.0457 8.9543 40 20 40ZM27.9258 21.0002C27.9258 25.4232 24.3505 29.0002 19.9505 29.0002C19.6375 29.0002 19.3287 28.9821 19.0251 28.9469C21.0227 27.1946 23.0309 25.0862 24.8845 22.7289C25.9163 21.4167 26.8346 20.1108 27.6315 18.839C27.8232 19.5263 27.9258 20.2511 27.9258 21.0002ZM7.38327 34.0688C9.49184 34.9921 13.1406 33.5486 17.0462 30.5698C17.9652 30.8497 18.9403 31.0002 19.9505 31.0002C25.4597 31.0002 29.9258 26.5231 29.9258 21.0002C29.9258 19.4285 29.5641 17.9414 28.9195 16.6181C31.1873 12.3572 31.9244 8.70854 30.8038 6.842C30.8816 6.57486 30.9233 6.29232 30.9233 6C30.9233 4.34315 29.5835 3 27.9307 3C26.278 3 24.9381 4.34315 24.9381 6C24.9381 6.0952 24.9426 6.18937 24.9512 6.2823C22.7219 7.21499 20.1369 8.96165 17.5535 11.2908C13.5116 12.2903 10.44 15.7599 10.0235 20.0107C5.53675 26.7258 4.29256 32.7154 7.38327 34.0688ZM25.1623 7.14126C24.3378 7.50253 23.4345 7.99518 22.4739 8.61761C21.437 9.28948 20.3563 10.0976 19.2624 11.0237C19.4897 11.0081 19.7192 11.0002 19.9505 11.0002C23.4581 11.0002 26.5428 12.8151 28.3213 15.5591C28.984 14.2201 29.4789 12.9612 29.7965 11.8242C30.2066 10.3559 30.3076 9.13869 30.1334 8.23114C30.1227 8.17533 30.111 8.12104 30.0985 8.06823C29.5533 8.64224 28.7837 9 27.9307 9C26.681 9 25.6102 8.23207 25.1623 7.14126ZM14.5236 31.2475C15.0169 30.9279 15.52 30.5775 16.0298 30.1982C12.7246 28.7805 10.3378 25.6247 10.0131 21.8771C8.6547 24.1269 7.70481 26.2374 7.20103 28.041C6.79088 29.5093 6.68991 30.7265 6.8641 31.634C7.03813 32.5408 7.46376 33.0473 8.00138 33.2827C8.53901 33.5181 9.33911 33.5484 10.4847 33.2195C11.6314 32.8903 13.006 32.2309 14.5236 31.2475ZM11.9753 21.0002C11.9753 24.7004 14.4775 27.8085 17.8714 28.7256C19.9296 26.9665 22.0298 24.7934 23.9685 22.3278C25.2227 20.7327 26.3008 19.1533 27.1911 17.6415C25.925 14.8996 23.1567 13.0002 19.9505 13.0002C18.5635 13.0002 17.2584 13.3557 16.1215 13.9811C15.0664 15.0781 14.0264 16.269 13.029 17.5374C12.8281 17.7929 12.6318 18.048 12.44 18.3024C12.1392 19.1451 11.9753 20.0533 11.9753 21.0002Z" fill="#070808"/>
</svg>
