<svg width="82" height="82" viewBox="0 0 82 82" fill="none" xmlns="http://www.w3.org/2000/svg">
<path fill-rule="evenodd" clip-rule="evenodd" d="M41 82C63.6437 82 82 63.6437 82 41C82 18.3563 63.6437 0 41 0C18.3563 0 0 18.3563 0 41C0 63.6437 18.3563 82 41 82ZM65.7969 12.6578C65.7969 13.7975 65.4792 14.8629 64.9275 15.7704C67.2478 20.3248 65.613 28.5036 60.8686 37.6173C61.4716 39.5232 61.7969 41.5525 61.7969 43.6578C61.7969 54.7035 52.8426 63.6578 41.7969 63.6578C41.1211 63.6578 40.4531 63.6243 39.7945 63.5588C29.9006 71.7164 20.3432 75.1068 15.6879 71.264C10.2762 66.7969 13.2065 53.9738 22.0338 40.5702C23.1816 33.1637 28.3931 27.1004 35.3181 24.7305C41.797 18.6195 48.3831 14.4125 53.7986 12.7996C53.7975 12.7525 53.7969 12.7052 53.7969 12.6578C53.7969 9.34413 56.4832 6.65784 59.7969 6.65784C63.1106 6.65784 65.7969 9.34413 65.7969 12.6578ZM48.9689 17.0231C50.8377 16.0135 52.5871 15.2649 54.1806 14.7736C55.0361 17.0433 57.2279 18.6578 59.7969 18.6578C61.1758 18.6578 62.4461 18.1927 63.4593 17.4108C63.7012 18.0887 63.8647 18.8864 63.9341 19.816C64.1039 22.0909 63.6879 24.9736 62.6395 28.3077C61.9655 30.4512 61.0433 32.7398 59.8875 35.1185C56.6841 28.3442 49.7878 23.6578 41.7969 23.6578C40.9614 23.6578 40.1379 23.7091 39.3293 23.8086C42.6441 20.9623 45.92 18.6701 48.9689 17.0231ZM25.3826 39.2178C26.5994 37.5051 27.9142 35.7871 29.3224 34.0812C31.0339 32.0079 32.7889 30.0666 34.5587 28.2713C36.7548 27.2364 39.2083 26.6578 41.7969 26.6578C49.4376 26.6578 55.901 31.6986 58.043 38.636C55.8075 42.6128 52.9768 46.756 49.6133 50.8307C46.561 54.5283 43.3702 57.8059 40.2043 60.5842C31.5623 59.7813 24.7969 52.5096 24.7969 43.6578C24.7969 42.1217 25.0007 40.6332 25.3826 39.2178ZM58.6664 41.5409C56.5669 45.0313 54.0486 48.5993 51.1557 52.1038C48.5683 55.2384 45.8742 58.0884 43.1666 60.6035C51.915 59.906 58.7969 52.5856 58.7969 43.6578C58.7969 42.941 58.7526 42.2345 58.6664 41.5409ZM37.1523 63.1157C34.682 65.0459 32.2602 66.6499 29.9668 67.8887C26.8918 69.5499 24.1401 70.5047 21.8743 70.769C19.6158 71.0325 18.0223 70.5976 16.961 69.7216C15.8998 68.8456 15.1709 67.3634 15.0016 65.0958C14.8318 62.8209 15.2478 59.9383 16.2962 56.6041C17.4432 52.9562 19.3093 48.8879 21.8221 44.6708C22.2709 53.6664 28.663 61.0968 37.1523 63.1157Z" fill="url(#paint0_linear_18_1437)"/>
<defs>
<linearGradient id="paint0_linear_18_1437" x1="62.5" y1="28.5" x2="8.5" y2="66" gradientUnits="userSpaceOnUse">
<stop stop-color="#92278F"/>
<stop offset="1" stop-color="#1872E7"/>
</linearGradient>
</defs>
</svg>
