<svg width="52" height="52" viewBox="0 0 52 52" fill="none" xmlns="http://www.w3.org/2000/svg">
<path fill-rule="evenodd" clip-rule="evenodd" d="M26 52C40.3594 52 52 40.3594 52 26C52 11.6406 40.3594 0 26 0C11.6406 0 0 11.6406 0 26C0 40.3594 11.6406 52 26 52ZM40.7457 7.5C40.7457 8.13693 40.5756 8.73412 40.2783 9.24861C41.8763 12.0129 40.9618 17.1105 38.0679 22.846C38.5075 24.1504 38.7457 25.5474 38.7457 27C38.7457 34.1797 32.9254 40 25.7457 40C25.2525 40 24.7658 39.9725 24.2868 39.919C18.0697 44.9953 12.0875 47.087 9.16025 44.6707C5.80715 41.9028 7.5025 34.078 12.8011 25.7923C13.3057 20.3141 17.2093 15.8203 22.3838 14.4389C26.407 10.7982 30.4468 8.33797 33.7459 7.46722C33.7635 5.54932 35.3237 4 37.2457 4C39.1787 4 40.7457 5.567 40.7457 7.5ZM30.1452 10.0251C31.4904 9.29839 32.7469 8.77826 33.8809 8.46649C34.3003 9.92943 35.648 11 37.2457 11C38.1477 11 38.9701 10.6588 39.5906 10.0984C39.8255 10.6216 39.9781 11.2572 40.0346 12.0133C40.1457 13.5017 39.8729 15.3662 39.2017 17.5008C38.7954 18.7931 38.2488 20.1659 37.5702 21.5903C35.5176 17.1112 30.995 14 25.7457 14C25.263 14 24.7865 14.0263 24.3174 14.0776C26.3192 12.3918 28.2956 11.0243 30.1452 10.0251ZM15.1197 24.1458C15.8876 23.0669 16.7162 21.9853 17.6024 20.9117C18.7565 19.5136 19.9423 18.209 21.1382 17.0086C22.5397 16.3612 24.1005 16 25.7457 16C30.7766 16 35.0187 19.3773 36.3284 23.9884C34.8913 26.5625 33.0639 29.2447 30.8891 31.8793C28.9889 34.1813 27.0028 36.2298 25.0273 37.9769C19.2871 37.6069 14.7457 32.8338 14.7457 27C14.7457 26.0128 14.8758 25.056 15.1197 24.1458ZM36.6383 25.4568C35.2649 27.7847 33.5946 30.1727 31.6603 32.5159C29.9965 34.5315 28.2632 36.3616 26.5219 37.973C32.2349 37.5748 36.7457 32.8142 36.7457 27C36.7457 26.4762 36.7091 25.961 36.6383 25.4568ZM22.9587 39.7005C21.3749 40.9394 19.8203 41.9697 18.3463 42.766C16.3775 43.8296 14.5985 44.4507 13.1159 44.6236C11.6371 44.7962 10.5443 44.5165 9.79685 43.8995C9.04938 43.2825 8.56774 42.2625 8.45691 40.7778C8.3458 39.2893 8.61856 37.4249 9.28979 35.2902C10.0162 32.9801 11.1907 30.4122 12.7672 27.7532C13.1034 33.6392 17.3556 38.4766 22.9587 39.7005Z" fill="url(#paint0_linear_18_1436)"/>
<defs>
<linearGradient id="paint0_linear_18_1436" x1="38.5" y1="17.5" x2="3" y2="40" gradientUnits="userSpaceOnUse">
<stop stop-color="#92278F"/>
<stop offset="1" stop-color="#1872E7"/>
</linearGradient>
</defs>
</svg>
